<svg xmlns="http://www.w3.org/2000/svg" width="256" height="256" viewBox="0 0 100 100"><rect width="100" height="100" rx="20" fill="#000000"></rect><path fill="#fff" d="M35.86 54.75L29.36 35.38L22.80 54.75L35.86 54.75ZM24.49 71.91L9.60 71.91L9.60 69.24L15.06 68.39L28.91 28.09L33.00 28.09L46.85 68.66L51.72 69.24L51.72 71.91L34.04 71.91L34.04 69.24L40.41 68.46L36.84 57.80L21.76 57.80L18.12 68.39L24.49 69.24L24.49 71.91ZM57.51 39.99L53.74 39.99L54.26 28.42L89.88 28.42L90.40 39.99L86.63 39.99L85.20 31.67L75.25 31.67Q75.19 35.83 75.16 40.05Q75.12 44.28 75.12 48.57L75.12 48.57L75.12 51.75Q75.12 55.91 75.16 60.11Q75.19 64.30 75.25 68.53L75.25 68.53L81.88 69.24L81.88 71.91L62.25 71.91L62.25 69.24L68.88 68.53Q69.01 64.36 69.01 60.17Q69.01 55.98 69.01 51.75L69.01 51.75L69.01 48.57Q69.01 44.34 69.01 40.12Q69.01 35.90 68.88 31.67L68.88 31.67L58.94 31.67L57.51 39.99Z"></path></svg>