<?xml version="1.0" encoding="UTF-8"?>
<svg width="1200pt" height="1200pt" version="1.1" viewBox="0 0 1200 1200" xmlns="http://www.w3.org/2000/svg">
 <path d="m270.23 677.86c-30.914 46.945-9.1602 111.07 44.656 128.24 5.7266-25.191 16.031-43.512 16.031-45.801 1.1445-2.2891 4.582-4.582 6.8711-4.582 1.1445 0 2.2891 0 4.582 1.1445 3.4336 2.2891 5.7266 6.8711 3.4336 11.449 0 0-10.305 17.176-14.887 41.223v2.2891c-13.742 76.715 46.945 117.94 95.035 107.63 22.902 45.801 80.152 59.543 120.23 34.352 9.1602-5.7266 13.742-14.887 13.742-25.191v-641.21c0-10.305-4.582-18.32-12.594-26.336-43.512-48.09-122.52-30.914-144.27 28.625-52.672-11.449-107.63 35.496-99.617 93.891 19.465-3.4336 41.223-3.4336 67.555 4.582 4.582 1.1445 6.8711 5.7266 5.7266 10.305-1.1445 4.582-5.7266 6.8711-10.305 5.7266-76.715-22.902-124.81 22.902-124.81 77.863 0 22.902 9.1602 43.512 22.902 58.395-43.512 36.641-41.223 104.2 5.7227 137.4zm52.672 52.672c-28.625-41.223-10.305-92.746 5.7266-82.441 3.4336 2.2891 4.582 8.0156 2.2891 11.449-18.32 28.625 4.582 61.832 4.582 61.832 8.0117 8.0156-5.7266 18.32-12.598 9.1602zm26.336-40.078c0-4.582 4.582-8.0156 9.1602-8.0156 28.625 1.1445 52.672-11.449 70.992-25.191-33.207-14.887-64.121-29.77-73.281-53.816-1.1445-4.582 1.1445-9.1602 4.582-10.305h2.2891c3.4336 0 6.8711 2.2891 8.0156 5.7266 8.0156 24.047 65.266 43.512 75.57 50.383 33.207 17.176 43.512 52.672 45.801 80.152 0 4.582-3.4336 9.1602-8.0156 9.1602-4.582 0-9.1602-3.4336-9.1602-8.0156-2.2891-21.754-9.1602-49.234-32.062-64.121-19.465 17.176-50.383 35.496-88.168 33.207-2.2891-0.003907-5.7227-4.582-5.7227-9.1641zm108.78 96.184c2.2891 3.4336 2.2891 9.1602-2.2891 11.449-3.4336 2.2891-9.1602 2.2891-11.449-2.2891-1.1445-2.2891-29.77-42.367-5.7266-80.152 2.2891-3.4336 8.0156-4.582 11.449-2.2891 3.4336 2.2891 4.582 8.0156 2.2891 11.449-18.32 28.625 4.582 61.832 5.7266 61.832zm76.715 137.4c-18.32 12.594-42.367 6.8711-57.25-4.582-28.625-21.754-34.352-61.832-59.543-81.297-10.305-8.0156-26.336-12.594-37.785-4.582-9.1602 5.7266-18.32-8.0156-9.1602-13.742 6.8711-4.582 14.887-6.8711 22.902-6.8711 27.48 0 45.801 19.465 59.543 43.512 14.887-41.223 59.543-25.191 60.688-65.266 0-4.582 3.4336-8.0156 8.0156-8.0156s8.0156 3.4336 8.0156 8.0156c-1.1445 40.074-38.93 48.09-46.945 52.672-12.594 6.8711-19.465 22.902-16.031 36.641v1.1445c20.609 34.352 44.656 36.641 57.25 28.625 3.4336-2.2891 9.1602-1.1445 11.449 2.2891 3.4336 3.4414 2.2891 9.168-1.1484 11.457zm1.1484-311.45c-4.582 9.1602-14.887 13.742-26.336 12.594-24.047-3.4336-30.914-28.625-44.656-34.352-6.8711-2.2891-16.031 0-19.465 6.8711-2.2891 3.4336-6.8711 5.7266-11.449 3.4336-3.4336-2.2891-5.7266-6.8711-3.4336-11.449 5.7266-10.305 17.176-16.031 28.625-16.031 27.48 0 34.352 33.207 52.672 35.496 3.4336 0 8.0156-1.1445 9.1602-3.4336 2.2891-4.582 6.8711-5.7266 11.449-3.4336 4.5781 1.1445 5.7227 5.7227 3.4336 10.305zm-5.7266-81.297c1.1445 4.582-1.1445 9.1602-4.582 10.305-19.465 6.8711-36.641 5.7266-51.527-1.1445-18.32-9.1602-28.625-27.48-33.207-38.93-27.48 14.887-56.105 12.594-64.121 30.914-3.4336 6.8711-2.2891 14.887 2.2891 24.047 2.2891 4.582 0 9.1602-3.4336 11.449-4.582 2.2891-9.1602 0-11.449-3.4336-6.8711-14.887-8.0156-27.48-2.2891-38.93 13.742-28.625 49.234-22.902 79.008-43.512 37.785-25.191 16.031-48.09 33.207-48.09 4.582 0 8.0156 3.4336 8.0156 8.0156 1.1445 21.754-10.305 37.785-27.48 50.383 3.4336 8.0156 11.449 25.191 27.48 33.207 11.449 5.7266 24.047 5.7266 38.93 1.1445 3.4336-2.2969 8.0156-0.003906 9.1602 4.5742zm-156.87-180.91c-3.4336 3.4336-9.1602 3.4336-11.449 0-3.4336-3.4336-3.4336-9.1602 0-11.449 17.176-16.031 46.945-29.77 74.426-26.336 13.742-34.352 36.641-59.543 73.281-52.672 4.582 1.1445 8.0156 5.7266 6.8711 10.305-1.1445 4.582-5.7266 6.8711-10.305 6.8711-22.902-4.582-41.223 9.1602-53.816 40.074 25.191 9.1602 46.945 30.914 64.121 66.41 2.2891 4.582 0 9.1602-3.4336 11.449-4.582 2.2891-9.1602 0-11.449-3.4336-17.176-35.496-38.93-56.105-62.977-60.688h-1.1445c-34.355-9.1562-64.125 18.324-64.125 19.469zm-24.047 100.76c10.305-9.1602 25.191-10.305 35.496-14.887 13.742-4.582 16.031-13.742 12.594-18.32-6.8711-9.1602 6.8711-18.32 13.742-10.305 5.7227 9.1602 5.7227 20.613 0 29.773-12.594 20.609-38.93 16.031-50.383 26.336-5.7266 4.582-6.8711 14.887-2.2891 20.609 2.2891 3.4336 2.2891 9.1602-2.2891 11.449-3.4336 2.2891-9.1602 2.2891-11.449-2.2891-9.1602-12.594-6.8711-30.914 4.5781-42.367zm-51.527-12.594c3.4336-2.2891 9.1602-2.2891 11.449 1.1445 2.2891 3.4336 2.2891 9.1602-1.1445 11.449-21.754 17.176-30.914 51.527-6.8711 85.875 9.1602-5.7266 20.609-10.305 33.207-13.742h2.2891c3.4336 0 6.8711 2.2891 8.0156 6.8711 1.1445 4.582-1.1445 9.1602-5.7266 10.305-22.902 5.7266-38.93 17.176-49.234 33.207-17.176 29.77-6.8711 67.555-6.8711 67.555 1.1445 4.582-1.1445 9.1602-5.7266 10.305-4.582 1.1445-9.1602-1.1445-10.305-5.7266-9.1602-29.77-4.582-72.137 21.754-97.328-30.91-42.359-20.605-87.016 9.1641-109.91z" fill="#fff"/>
 <path d="m912.59 652.67c28.625 0 52.672-24.047 52.672-52.672s-24.047-52.672-52.672-52.672c-25.191 0-45.801 17.176-51.527 41.223h-278.24v22.902h278.24c5.7266 24.043 26.336 41.219 51.527 41.219zm0-82.441c16.031 0 29.77 13.742 29.77 29.77 0 16.031-13.742 29.77-29.77 29.77-16.031 0-29.77-13.742-29.77-29.77s13.738-29.77 29.77-29.77z" fill="#fff"/>
 <path d="m925.18 867.93c-19.465 0-35.496 12.594-40.074 30.914h-182.06c-16.031 0-32.062-6.8711-43.512-18.32-11.449-11.449-18.32-27.48-18.32-43.512v-2.2891c0-35.496-24.047-65.266-57.25-73.281v24.047c20.609 6.8711 34.352 26.336 34.352 49.234v2.2891c0 22.902 9.1602 43.512 25.191 59.543 14.883 16.031 36.637 25.191 59.539 25.191h182.06c4.5781 17.176 20.609 29.77 40.074 29.77 22.902 0 41.223-18.32 41.223-41.219 0-22.902-18.32-42.367-41.223-42.367zm0 60.688c-10.305 0-18.32-8.0156-18.32-18.32 0-10.305 8.0156-19.465 18.32-19.465 10.305-0.003907 18.32 9.1562 18.32 19.465 0 10.305-8.0156 18.32-18.32 18.32z" fill="#fff"/>
 <path d="m583.97 670.99h132.82c17.176 0 30.914 13.742 30.914 30.914 0 29.77 24.047 53.816 53.816 53.816l38.934 0.003906c4.582 18.32 21.754 33.207 42.367 33.207 24.047 0 44.656-19.465 44.656-44.656 0-24.047-19.465-44.656-44.656-44.656-20.609 0-37.785 13.742-42.367 33.207h-38.93c-17.176 0-30.914-13.742-30.914-30.914 0-29.77-24.047-53.816-53.816-53.816h-132.82zm298.85 51.527c11.449 0 21.754 9.1602 21.754 21.754s-9.1602 21.754-21.754 21.754c-11.449 0-21.754-9.1602-21.754-21.754-0.003906-12.594 10.301-21.754 21.754-21.754z" fill="#fff"/>
 <path d="m583.97 732.82h61.832c18.32 0 33.207 14.887 33.207 33.207 0 20.609 8.0156 40.074 22.902 53.816 13.742 13.742 33.207 21.754 53.816 21.754h24.047c4.582 17.176 20.609 29.77 40.074 29.77 22.902 0 42.367-18.32 42.367-41.223 0-22.902-18.32-42.367-42.367-42.367-19.465 0-34.352 12.594-40.074 30.914h-24.047c-13.742 0-27.48-5.7266-37.785-16.031-10.305-10.305-16.031-22.902-16.031-37.785 0-30.914-25.191-56.105-56.105-56.105h-62.977l-0.003906 24.051zm235.88 80.152c10.305 0 19.465 8.0156 19.465 19.465 0 10.305-8.0156 18.32-19.465 18.32-10.305 0-18.32-8.0156-18.32-18.32-1.1445-11.449 8.0156-19.465 18.32-19.465z" fill="#fff"/>
 <path d="m641.22 366.41v-2.2891c0-16.031 6.8711-32.062 18.32-43.512 11.449-11.449 27.48-18.32 43.512-18.32h182.06c4.582 17.176 20.609 30.914 40.074 30.914 22.902 0 41.223-18.32 41.223-42.367 0-22.902-18.32-41.223-41.223-41.223-19.465 0-35.496 12.594-40.074 29.77h-182.06c-22.902 0-43.512 9.1602-59.543 25.191s-25.191 37.785-25.191 59.543v2.2891c0 22.902-14.887 42.367-34.352 49.234l0.003906 24.051c32.059-9.1602 57.25-37.785 57.25-73.281zm283.96-95.035c10.305 0 18.32 8.0117 18.32 18.32 0 10.305-8.0156 19.465-18.32 19.465-10.305 0-18.32-8.0156-18.32-19.465-1.1445-10.309 6.8711-18.32 18.32-18.32z" fill="#fff"/>
 <path d="m770.61 498.09c0-17.176 13.742-30.914 30.914-30.914h38.934c4.582 19.465 21.754 33.207 42.367 33.207 24.047 0 44.656-19.465 44.656-44.656 0-24.047-19.465-44.656-44.656-44.656-20.609 0-37.785 13.742-42.367 33.207h-38.93c-29.77 0-53.816 24.047-53.816 53.816 0 17.176-13.742 30.914-30.914 30.914h-132.82v22.902l132.82-0.003906c29.773-1.1445 53.816-25.188 53.816-53.816zm112.21-64.121c11.449 0 21.754 9.1602 21.754 21.754 0 11.449-9.1602 21.754-21.754 21.754-11.449 0-21.754-9.1602-21.754-21.754-0.003906-12.594 10.301-21.754 21.754-21.754z" fill="#fff"/>
 <path d="m701.91 432.82c0-13.742 5.7266-27.48 16.031-37.785 10.305-10.305 22.902-16.031 37.785-16.031h24.047c4.582 17.176 20.609 30.914 40.074 30.914 22.902 0 42.367-18.32 42.367-42.367 0-22.902-18.32-41.223-42.367-41.223-19.465 0-34.352 12.594-40.074 29.77h-24.047c-20.609 0-40.074 8.0156-53.816 21.754-14.887 14.887-22.902 33.207-22.902 53.816 0 18.32-14.887 33.207-33.207 33.207h-62.977v22.902l62.98 0.003906c30.914 2.293 56.105-22.898 56.105-54.961zm117.94-83.586c10.305 0 19.465 8.0156 19.465 18.32 0 10.305-8.0156 19.465-19.465 19.465-10.305 0-18.32-8.0156-18.32-19.465-1.1445-9.1602 8.0156-18.32 18.32-18.32z" fill="#fff"/>
 <path d="m270.23 677.86c-30.914 46.945-9.1602 111.07 44.656 128.24 5.7266-25.191 16.031-43.512 16.031-45.801 2.2891-3.4336 6.8711-5.7266 11.449-3.4336 3.4336 2.2891 5.7266 6.8711 3.4336 11.449 0 0-10.305 17.176-14.887 41.223-17.172 59.539 33.211 122.52 95.039 109.92 22.902 45.801 80.152 59.543 120.23 34.352 9.1602-5.7266 13.742-14.887 13.742-25.191v-641.21c0-10.305-4.582-18.32-12.594-26.336-43.512-48.09-122.52-30.914-144.27 28.625-52.672-11.449-107.63 35.496-99.617 93.891 19.465-3.4336 41.223-3.4336 67.555 4.582 4.582 1.1445 6.8711 5.7266 5.7266 10.305-1.1445 4.582-5.7266 6.8711-10.305 5.7266-76.715-22.902-124.81 22.902-124.81 77.863 0 22.902 9.1602 43.512 22.902 58.395-43.512 36.637-41.223 104.19 5.7227 137.4zm52.672 52.672c-28.625-41.223-10.305-92.746 5.7266-82.441 3.4336 2.2891 4.582 8.0156 2.2891 11.449-18.32 28.625 4.582 61.832 4.582 61.832 8.0117 8.0156-5.7266 18.32-12.598 9.1602zm26.336-40.078c0-4.582 4.582-8.0156 9.1602-8.0156 28.625 1.1445 52.672-11.449 70.992-25.191-33.207-14.887-64.121-29.77-73.281-53.816-1.1445-4.582 1.1445-9.1602 4.582-10.305 4.582-1.1445 9.1602 1.1445 10.305 4.582 8.0156 24.047 65.266 43.512 75.57 50.383 33.207 17.176 43.512 52.672 45.801 80.152 0 4.582-3.4336 9.1602-8.0156 9.1602-4.582 0-9.1602-3.4336-9.1602-8.0156-2.2891-21.754-9.1602-49.234-32.062-64.121-19.465 17.176-50.383 35.496-88.168 33.207-2.2891 1.1406-5.7227-3.4375-5.7227-8.0195zm108.78 96.184c2.2891 3.4336 2.2891 9.1602-2.2891 11.449-3.4336 2.2891-9.1602 2.2891-11.449-2.2891-1.1445-2.2891-29.77-42.367-5.7266-80.152 2.2891-3.4336 8.0156-4.582 11.449-2.2891 3.4336 2.2891 4.582 8.0156 2.2891 11.449-18.32 28.625 4.582 61.832 5.7266 61.832zm76.715 137.4c-18.32 12.594-42.367 6.8711-57.25-4.582-28.625-21.754-34.352-61.832-59.543-81.297-10.305-8.0156-26.336-12.594-37.785-4.582-9.1602 5.7266-18.32-8.0156-9.1602-13.742 20.609-13.742 56.105-9.1602 82.441 36.641 14.887-41.223 59.543-25.191 60.688-65.266 0-4.582 3.4336-8.0156 8.0156-8.0156s8.0156 3.4336 8.0156 8.0156c-1.1445 40.074-38.93 48.09-46.945 52.672-12.594 6.8711-19.465 22.902-16.031 36.641v1.1445c20.609 34.352 44.656 36.641 57.25 28.625 3.4336-2.2891 9.1602-1.1445 11.449 2.2891 3.4375 3.4414 2.293 9.168-1.1445 11.457zm1.1484-311.45c-4.582 9.1602-14.887 13.742-26.336 12.594-24.047-3.4336-30.914-28.625-44.656-34.352-6.8711-2.2891-16.031 0-19.465 6.8711-2.2891 3.4336-6.8711 5.7266-11.449 3.4336-3.4336-2.2891-5.7266-6.8711-3.4336-11.449 5.7266-10.305 17.176-16.031 28.625-16.031 27.48 0 34.352 33.207 52.672 35.496 3.4336 0 8.0156-1.1445 9.1602-3.4336 2.2891-4.582 6.8711-5.7266 11.449-3.4336 4.5781 1.1445 5.7227 5.7227 3.4336 10.305zm-5.7266-81.297c1.1445 4.582-1.1445 9.1602-4.582 10.305-19.465 6.8711-36.641 5.7266-51.527-1.1445-18.32-9.1602-28.625-27.48-33.207-38.93-30.914 16.031-81.297 14.887-61.832 54.961 2.2891 4.582 0 9.1602-3.4336 11.449-4.582 2.2891-9.1602 0-11.449-3.4336-6.8711-14.887-8.0156-27.48-2.2891-38.93 13.742-28.625 49.234-22.902 79.008-43.512 37.785-25.191 16.031-48.09 33.207-48.09 4.582 0 8.0156 3.4336 8.0156 8.0156 1.1445 21.754-10.305 37.785-27.48 50.383 3.4336 8.0156 11.449 25.191 27.48 33.207 11.449 5.7266 24.047 5.7266 38.93 1.1445 3.4336-2.2969 8.0156-0.003906 9.1602 4.5742zm-156.87-180.91c-3.4336 3.4336-9.1602 3.4336-11.449 0-3.4336-3.4336-3.4336-9.1602 0-11.449 17.176-16.031 46.945-29.77 74.426-26.336 13.742-34.352 36.641-59.543 73.281-52.672 4.582 1.1445 8.0156 5.7266 6.8711 10.305-1.1445 4.582-5.7266 6.8711-10.305 6.8711-22.902-4.582-41.223 9.1602-53.816 40.074 25.191 9.1602 46.945 30.914 64.121 66.41 2.2891 4.582 0 9.1602-3.4336 11.449-4.582 2.2891-9.1602 0-11.449-3.4336-17.176-35.496-38.93-56.105-62.977-60.688h-1.1445c-34.355-9.1562-64.125 18.324-64.125 19.469zm-24.047 100.76c10.305-9.1602 25.191-10.305 35.496-14.887 13.742-4.582 16.031-13.742 12.594-18.32-6.8711-9.1602 6.8711-18.32 13.742-10.305 5.7227 9.1602 5.7227 20.613 0 29.773-12.594 20.609-38.93 16.031-50.383 26.336-5.7266 4.582-6.8711 14.887-2.2891 20.609 2.2891 3.4336 2.2891 9.1602-2.2891 11.449-3.4336 2.2891-9.1602 2.2891-11.449-2.2891-9.1602-12.594-6.8711-30.914 4.5781-42.367zm-51.527-12.594c3.4336-2.2891 9.1602-2.2891 11.449 1.1445 2.2891 3.4336 2.2891 9.1602-1.1445 11.449-21.754 17.176-30.914 51.527-6.8711 85.875 13.742-9.1602 32.062-13.742 35.496-13.742s6.8711 2.2891 8.0156 6.8711c1.1445 4.582-1.1445 9.1602-5.7266 10.305-22.902 5.7266-38.93 17.176-49.234 33.207-17.176 29.77-6.8711 67.555-6.8711 67.555 1.1445 4.582-1.1445 9.1602-5.7266 10.305-4.582 1.1445-9.1602-1.1445-10.305-5.7266-9.1602-29.77-4.582-72.137 21.754-97.328-30.91-42.359-20.605-87.016 9.1641-109.91z" fill="#fff"/>
 <path d="m912.59 652.67c28.625 0 52.672-24.047 52.672-52.672s-24.047-52.672-52.672-52.672c-25.191 0-45.801 17.176-51.527 41.223h-278.24v22.902h278.24c5.7266 24.043 26.336 41.219 51.527 41.219zm0-82.441c16.031 0 29.77 13.742 29.77 29.77 0 16.031-13.742 29.77-29.77 29.77-16.031 0-29.77-13.742-29.77-29.77s13.738-29.77 29.77-29.77z" fill="#fff"/>
 <path d="m925.18 867.93c-19.465 0-35.496 12.594-40.074 30.914h-182.06c-16.031 0-32.062-6.8711-43.512-18.32-11.449-11.449-18.32-27.48-18.32-43.512v-2.2891c0-35.496-24.047-65.266-57.25-73.281v24.047c20.609 6.8711 34.352 26.336 34.352 49.234v2.2891c0 22.902 9.1602 43.512 25.191 59.543 14.883 16.031 36.637 25.191 59.539 25.191h182.06c4.5781 17.176 20.609 29.77 40.074 29.77 22.902 0 41.223-18.32 41.223-41.219 0-22.902-18.32-42.367-41.223-42.367zm0 60.688c-10.305 0-18.32-8.0156-18.32-18.32 0-10.305 8.0156-19.465 18.32-19.465 10.305-0.003907 18.32 9.1562 18.32 19.465 0 10.305-8.0156 18.32-18.32 18.32z" fill="#fff"/>
 <path d="m583.97 670.99h132.82c17.176 0 30.914 13.742 30.914 30.914 0 29.77 24.047 53.816 53.816 53.816l38.934 0.003906c4.582 18.32 21.754 33.207 42.367 33.207 24.047 0 44.656-19.465 44.656-44.656 0-24.047-19.465-44.656-44.656-44.656-20.609 0-37.785 13.742-42.367 33.207h-38.93c-17.176 0-30.914-13.742-30.914-30.914 0-29.77-24.047-53.816-53.816-53.816h-132.82zm298.85 51.527c11.449 0 21.754 9.1602 21.754 21.754s-9.1602 21.754-21.754 21.754c-11.449 0-21.754-9.1602-21.754-21.754-0.003906-12.594 10.301-21.754 21.754-21.754z" fill="#fff"/>
 <path d="m583.97 732.82h61.832c18.32 0 33.207 14.887 33.207 33.207 0 20.609 8.0156 40.074 22.902 53.816 13.742 13.742 33.207 21.754 53.816 21.754h24.047c4.582 17.176 20.609 29.77 40.074 29.77 22.902 0 42.367-18.32 42.367-41.223 0-22.902-18.32-42.367-42.367-42.367-19.465 0-34.352 12.594-40.074 30.914h-24.047c-13.742 0-27.48-5.7266-37.785-16.031-10.305-10.305-16.031-22.902-16.031-37.785 0-30.914-25.191-56.105-56.105-56.105h-62.977l-0.003906 24.051zm235.88 80.152c10.305 0 19.465 8.0156 19.465 19.465 0 10.305-8.0156 18.32-19.465 18.32-10.305 0-18.32-8.0156-18.32-18.32-1.1445-11.449 8.0156-19.465 18.32-19.465z" fill="#fff"/>
 <path d="m641.22 366.41v-2.2891c0-16.031 6.8711-32.062 18.32-43.512 11.449-11.449 27.48-18.32 43.512-18.32h182.06c4.582 17.176 20.609 30.914 40.074 30.914 22.902 0 41.223-18.32 41.223-42.367 0-22.902-18.32-41.223-41.223-41.223-19.465 0-35.496 12.594-40.074 29.77h-182.06c-22.902 0-43.512 9.1602-59.543 25.191s-25.191 37.785-25.191 59.543v2.2891c0 22.902-14.887 42.367-34.352 49.234l0.003906 24.051c32.059-9.1602 57.25-37.785 57.25-73.281zm283.96-95.035c10.305 0 18.32 8.0117 18.32 18.32 0 10.305-8.0156 19.465-18.32 19.465-10.305 0-18.32-8.0156-18.32-19.465-1.1445-10.309 6.8711-18.32 18.32-18.32z" fill="#fff"/>
 <path d="m770.61 498.09c0-17.176 13.742-30.914 30.914-30.914h38.934c4.582 19.465 21.754 33.207 42.367 33.207 24.047 0 44.656-19.465 44.656-44.656 0-24.047-19.465-44.656-44.656-44.656-20.609 0-37.785 13.742-42.367 33.207h-38.93c-29.77 0-53.816 24.047-53.816 53.816 0 17.176-13.742 30.914-30.914 30.914h-132.82v22.902l132.82-0.003906c29.773-1.1445 53.816-25.188 53.816-53.816zm112.21-64.121c11.449 0 21.754 9.1602 21.754 21.754 0 11.449-9.1602 21.754-21.754 21.754-11.449 0-21.754-9.1602-21.754-21.754-0.003906-12.594 10.301-21.754 21.754-21.754z" fill="#fff"/>
 <path d="m701.91 432.82c0-13.742 5.7266-27.48 16.031-37.785 10.305-10.305 22.902-16.031 37.785-16.031h24.047c4.582 17.176 20.609 30.914 40.074 30.914 22.902 0 42.367-18.32 42.367-42.367 0-22.902-18.32-41.223-42.367-41.223-19.465 0-34.352 12.594-40.074 29.77h-24.047c-20.609 0-40.074 8.0156-53.816 21.754-14.887 14.887-22.902 33.207-22.902 53.816 0 18.32-14.887 33.207-33.207 33.207h-62.977v22.902l62.98 0.003906c30.914 2.293 56.105-22.898 56.105-54.961zm117.94-83.586c10.305 0 19.465 8.0156 19.465 18.32 0 10.305-8.0156 19.465-19.465 19.465-10.305 0-18.32-8.0156-18.32-19.465-1.1445-9.1602 8.0156-18.32 18.32-18.32z" fill="#fff"/>
</svg>
