<?xml version="1.0" encoding="UTF-8"?>
<svg width="1200pt" height="1200pt" version="1.1" viewBox="0 0 1200 1200" xmlns="http://www.w3.org/2000/svg">
 <path d="m778.31 811.45c0.23438 6.6562-5.0156 12.188-11.625 12.375-6.6094 0.23438-12.141-4.9688-12.375-11.625-1.5938-50.812-32.25-96.234-78.797-116.72-32.906-11.484-61.641-32.438-82.688-60.188-21-27.797-33.328-61.172-35.438-95.906-0.42188-6.6562 4.6406-12.328 11.25-12.75 6.6562-0.375 12.328 4.6406 12.75 11.297 3.5156 57.422 39.047 108.05 91.875 130.82 3.6094 1.2656 7.2188 2.6719 10.734 4.1719 10.031 3.4688 20.438 5.8594 30.984 7.1719 72.938 9.0469 141.98-35.156 164.34-105.19 2.1094-6.1406 8.7656-9.5156 15-7.5469 6.1875 1.9688 9.7031 8.5312 7.875 14.812-11.438 36-34.172 67.453-64.781 89.625-30.609 22.172-67.547 33.938-105.33 33.562 5.6719 5.6719 10.922 11.719 15.703 18.188 18.891 25.5 29.531 56.156 30.516 87.891zm-445.36-464.06v-89.156h-79.172c-0.42188 0-0.75-0.09375-1.1719-0.09375-6.1875 30.562-34.453 51.422-65.484 48.328-30.984-3.0938-54.562-29.156-54.562-60.328 0-31.125 23.578-57.234 54.562-60.328 31.031-3.0938 59.297 17.812 65.484 48.328 0.375-0.046875 0.75-0.046875 1.1719-0.046875h91.172c6.6562 0 12 5.3906 12.047 12v98.766c-8.0625 0.14062-16.125 0.98438-24 2.5312zm312.37-260.53c0-23.438 13.453-44.812 34.641-54.844 21.188-10.078 46.266-6.9844 64.406 7.8281 18.141 14.859 26.109 38.812 20.438 61.547-5.625 22.734-23.906 40.219-46.875 44.812v165.24c-7.6875-3.75-15.75-6.7969-24-9.0938v-154.92c0-0.375 0-0.75 0.09375-1.125-28.266-5.7188-48.609-30.562-48.656-59.391zm-211.87 0h0.046875c-0.046875-23.438 13.453-44.812 34.594-54.844 21.188-10.078 46.266-7.0312 64.406 7.8281s26.109 38.859 20.438 61.594-23.953 40.172-46.922 44.766c0.046875 0.42188 0.046875 0.79688 0.046875 1.1719v150.79c-2.2031-0.09375-4.3594-0.09375-6.5625 0-5.8594 0.23438-11.719 1.0312-17.484 2.3438v-154.22c-28.219-5.7656-48.516-30.562-48.516-59.391zm633.94 159.28c-0.1875-31.031-23.766-56.906-54.656-60-30.844-3.0469-59.062 17.672-65.344 48.047-0.42188-0.046875-0.79688-0.09375-1.1719-0.09375h-91.172c-6.6562 0.046875-12.047 5.3906-12.047 12.047v85.781c1.3594 0.70312 2.8125 1.3594 4.2188 2.1094 7.0781 3.75 13.688 8.2031 19.828 13.359v-89.156h79.172c0.42188 0 0.75-0.09375 1.1719-0.09375 6.2812 30.422 34.5 51.141 65.391 48.047s54.422-29.016 54.609-60.047zm-246.19 283.87c3.1875 5.7188 1.125 12.984-4.5938 16.219-5.7188 3.2812-12.984 1.3125-16.312-4.3594-21.234-37.172-17.25-83.672 10.125-116.67 4.2188-5.1094 11.859-5.8125 16.969-1.5938 5.1094 4.2656 5.8594 11.859 1.5938 16.969-21 25.266-24.094 60.891-7.7812 89.438zm132.56 180.37c-12.047-12.094-30.938-13.969-45.141-4.5s-19.688 27.656-13.172 43.453c6.5156 15.75 23.25 24.703 40.031 21.375 16.734-3.3281 28.781-18 28.781-35.062 0-9.5156-3.75-18.609-10.5-25.266zm-202.18 153c-12.094-12.094-30.984-14.016-45.188-4.5469-14.25 9.5156-19.781 27.703-13.219 43.453 6.5156 15.797 23.297 24.75 40.031 21.422 16.734-3.3281 28.828-18 28.828-35.109 0-9.4688-3.75-18.562-10.453-25.219zm-25.266-34.641c33.047 0.046875 59.812 26.859 59.812 59.906 0 1.6406-0.09375 3.1875-0.1875 4.7812 15.188 0.9375 30.375-0.70312 45-4.9219 18.656-5.2969 35.859-14.672 50.391-27.469 5.0156-4.2188 12.516-3.6562 16.781 1.3125 4.3125 4.9219 3.8906 12.375-0.9375 16.781-32.484 28.406-75.234 42.094-118.17 37.922-10.266 18.938-29.859 30.938-51.422 31.406-21.516 0.46875-41.672-10.688-52.688-29.156-11.062-18.516-11.297-41.531-0.65625-60.281 10.641-18.703 30.516-30.281 52.078-30.281zm-118.83 39.516c-12.094-12.094-31.031-13.969-45.234-4.5-14.203 9.4688-19.734 27.703-13.219 43.453 6.5156 15.797 23.297 24.797 40.078 21.469 16.734-3.3281 28.781-18.047 28.781-35.156 0-9.4688-3.75-18.562-10.406-25.266zm-11.531-33-0.046876 0.046875c29.906 7.0312 49.641 35.531 45.703 66-3.9375 30.422-30.234 53.016-60.938 52.219-30.703-0.75-55.828-24.609-58.219-55.266-2.3906-30.609 18.75-58.078 48.938-63.562-6.8438-34.031-26.766-63.984-55.453-83.484-4.6875-2.7656-6.8906-8.2969-5.3906-13.5 0.84375-3.0938 2.9062-5.7188 5.6719-7.2656 2.7656-1.5469 6.0469-1.9688 9.1406-1.0781 22.594 6.375 46.828-1.875 60.797-20.766 4.0312-5.1562 11.438-6.1406 16.688-2.25 5.25 3.9375 6.375 11.297 2.5781 16.641-9.7031 13.125-23.203 23.016-38.719 28.266-3.5156 1.2188-7.125 2.2031-10.781 2.8594 7.4062 7.9688 14.016 16.688 19.688 26.016 10.172 16.969 17.062 35.672 20.25 55.219zm-139.4-151.78c-12.047-12.094-30.984-13.969-45.141-4.5-14.203 9.4688-19.734 27.656-13.219 43.453 6.5156 15.75 23.297 24.703 40.031 21.375 16.734-3.3281 28.781-18 28.781-35.062 0-9.5156-3.75-18.562-10.453-25.266zm-157.36-200.95c-6.6562-6.8906-15.844-10.828-25.453-10.922-9.5625-0.046874-18.797 3.7031-25.594 10.5-6.75 6.7969-10.547 16.031-10.453 25.594 0.09375 9.6094 4.0312 18.75 10.969 25.406 6.6562 6.9375 15.844 10.828 25.406 10.922 9.6094 0.09375 18.844-3.7031 25.594-10.5 6.7969-6.7969 10.547-15.984 10.453-25.594-0.09375-9.6094-4.0312-18.75-10.922-25.406zm-25.266-34.547c22.312 0 42.75 12.422 53.062 32.203s8.7188 43.688-4.0312 61.969c28.922 19.5 64.406 26.812 98.672 20.297 3.1875-0.65625 6.4688 0 9.0938 1.7812 2.6719 1.8281 4.5469 4.5938 5.1094 7.7812 0.60938 3.1406-0.09375 6.4219-1.9219 9.0469-1.8281 2.6719-4.6406 4.4531-7.8281 5.0156-42.375 8.1094-86.203-1.6875-121.03-27.141-15.984 9.75-35.625 11.438-53.062 4.5938s-30.656-21.516-35.719-39.516c-5.0625-18.047-1.3594-37.406 9.9375-52.359 11.297-14.906 28.969-23.672 47.719-23.672zm427.26-55.688c-12.047-12.141-31.031-14.062-45.281-4.5469-14.25 9.4688-19.828 27.75-13.266 43.547 6.5156 15.844 23.344 24.844 40.125 21.469 16.828-3.3281 28.922-18.094 28.875-35.203 0.046875-9.4688-3.75-18.562-10.453-25.266zm23.344 781.5 61.828-4.5-4.3594-111.61c-0.23438-6.6094 4.9219-12.188 11.531-12.422 1.0781-0.046874 2.1562 0.046876 3.2344 0.28125 72.656 17.062 114.94 13.172 144.32-10.125 29.719-23.578 48.562-68.203 72.891-131.39l-0.046876-37.031c-0.70312-19.078-5.5781-37.781-14.203-54.797-6.8906-13.5-16.031-25.734-27.047-36.188-0.60937 0.70312-1.2656 1.2656-1.9219 1.9688-20.156 20.156-51.75 23.25-75.469 7.4062-23.672-15.891-32.906-46.266-21.984-72.609 10.922-26.344 38.906-41.297 66.891-35.719 27.938 5.5312 48.094 30.094 48.141 58.594 0 6.5625-1.0781 13.078-3.2344 19.266 14.859 13.078 27.094 28.828 36.094 46.5 7.5469 14.766 12.656 30.656 15.141 47.062 20.859-10.312 38.016-26.812 49.125-47.297 10.406-21.938 9.8906-49.172-1.9219-84.562v0.046875c-0.84375-2.625-0.79688-5.4844 0.1875-8.0625h-0.09375c14.344-37.359 20.297-69.797 12.422-95.297-7.5-24.516-28.594-43.547-68.719-55.734h0.046876c-4.5938-1.3594-7.875-5.3438-8.3906-10.078h-0.09375c-5.2031-43.922-10.312-73.828-25.125-91.594-14.344-17.297-39.75-24.984-86.344-25.875l0.046876-0.046875c-4.1719-0.046875-7.9688-2.25-10.125-5.8125-20.484-33.938-38.578-56.859-61.406-69-22.406-11.906-50.766-13.875-92.203-6.4688v0.046875c-8.3906 2.4844-16.312 6.375-23.438 11.531-3.4688 2.5312-6.7969 5.3438-9.8438 8.3906 2.7656 1.9219 5.3906 4.125 7.7344 6.5625 20.156 20.156 23.25 51.797 7.3594 75.469-15.844 23.719-46.219 32.906-72.562 21.984s-41.297-38.953-35.719-66.938c5.5781-27.938 30.141-48.094 58.641-48.094 3.7969 0 7.5469 0.375 11.25 1.125 5.5781-6.8438 12-12.844 19.125-18 2.3438-1.6875 4.7812-3.2812 7.2188-4.7812l0.046874 0.046875c-12.984-7.6406-27.609-11.953-42.609-12.656-16.734 0.28125-34.5 8.8594-63.047 25.359v-0.046875c-3.1875 1.8281-7.0312 2.1094-10.453 0.75-41.25-16.688-70.875-28.266-96.938-27.188-21.562 0.9375-42.188 10.781-67.547 34.219 52.969 23.297 88.734 73.875 93.047 131.58 0.046874 6.375-4.8281 11.719-11.203 12.141-6.375 0.46875-12-4.125-12.797-10.453-3.9844-54.516-41.156-100.92-93.469-116.72-25.312-5.25-51.375-5.4844-76.734-0.60938-20.484 5.7656-37.781 19.875-51.141 49.406v-0.046875c-1.9688 4.3125-6.2812 7.0781-11.016 7.125-42.609 0-69.609 6.8438-87.141 23.766-17.812 17.156-27.469 45.984-35.109 89.484-0.1875 1.2656-0.60937 2.4844-1.2656 3.6094l-17.297 38.859c24.094 47.109 73.922 75.328 126.71 71.766 5.1562-0.5625 10.078 2.2969 12.141 7.0781l0.14062 0.28125v0.14062l0.09375 0.14062v0.23438h0.09375-0.046875c0.79688 2.2969 0.89062 4.8281 0.28125 7.1719l-0.046875 0.28125-0.09375 0.28125-0.046875 0.28125-0.14062 0.28125v0.28125l-0.14062 0.28125v-0.046875c-1.0781 2.4844-2.9062 4.5469-5.2969 5.8594l-0.14062 0.046875h-0.09375l-0.1875 0.14062-0.84375 0.42188h-0.14062 0.046875c-10.594 4.3125-19.594 11.719-25.875 21.281-6.2812 9.6094-9.5625 20.859-9.2812 32.344 0.14062 6.6562-5.1094 12.141-11.719 12.281-6.6562 0.1875-12.141-5.0625-12.281-11.719-0.42188-16.359 4.125-32.438 13.125-46.078h0.046875c2.0156-3.1406 4.3125-6.0938 6.75-8.8594-42.891-6.7969-80.953-31.219-105.05-67.359l-9.4688 21.422c-9.5625 62.766-10.453 102.33 5.625 131.16 16.078 28.828 49.922 48.984 110.02 73.266l41.812-4.5-0.046875-0.046875c0.42188-0.046875 0.84375-0.09375 1.2656-0.09375 17.859-1.2656 35.766-0.46875 53.438 2.2969-2.3438-29.953 5.8125-59.766 23.062-84.328 8.3438-11.672 18.469-21.938 30-30.422-0.70312-3.75-1.0781-7.5469-1.0781-11.391 0-28.5 20.156-53.062 48.141-58.594 27.984-5.5781 55.969 9.4219 66.891 35.766s1.6875 56.719-21.984 72.609c-23.719 15.844-55.312 12.75-75.516-7.4062-2.4844-2.5312-4.7812-5.25-6.8438-8.1562-2.1094 1.6875-4.1719 3.4688-6.1406 5.3906-5.1094 4.875-9.75 10.219-13.781 15.984-16.219 23.062-22.547 51.656-17.578 79.406 21.188 12.703 29.297 36.422 42.094 74.016 3.4219 9.9844 7.2188 21.094 11.906 33.609h-0.046875c38.906 14.953 79.172 26.062 120.24 33.188 95.297 19.172 163.26 32.906 205.74 189.19z"/>
</svg>
