<?xml version="1.0" encoding="UTF-8"?>
<svg width="1200pt" height="1200pt" version="1.1" viewBox="0 0 1200 1200" xmlns="http://www.w3.org/2000/svg">
 <path d="m245.45 129.09c18.184 54.547 69.09 94.547 129.09 94.547 10.91 0 18.184 7.2734 18.184 18.184 0 10.91-7.2734 18.184-18.184 18.184-69.09 0-129.09-41.816-156.36-101.82-96.363 34.547-138.18 147.27-94.547 236.36 78.184 5.4531 152.73 43.637 207.27 100 7.2734 7.2734 7.2734 18.184 0 25.453-7.2734 7.2734-18.184 7.2734-25.453 0-50.91-50.91-116.36-83.637-181.82-89.09-7.2734 0-16.363-1.8164-23.637-1.8164-100 70.902-109.09 216.36-23.637 298.18 63.637 7.2734 130.91-14.547 180-63.637 7.2734-7.2734 18.184-7.2734 25.453 0 7.2734 7.2734 7.2734 18.184 0 25.453-45.453 47.273-105.45 70.91-165.45 74.547-14.547 43.637-12.727 92.727 9.0898 134.55 20 40 54.547 69.09 94.547 83.637 49.09-45.453 114.55-74.547 187.27-74.547 10.91 0 18.184 7.2734 18.184 18.184 0 10.91-7.2734 18.184-18.184 18.184-67.273 0-129.09 29.09-172.73 74.547 1.8164 34.547 14.547 67.273 36.363 96.363 32.727 41.816 81.816 65.453 134.55 65.453 94.547 0 172.73-78.184 172.73-172.73v-818.18c1.8164-187.28-263.64-238.18-332.73-60.004z"/>
 <path d="m1098.2 516.36c-40 0-72.727 29.09-81.816 65.453h-400v36.363h400c9.0898 38.184 41.816 65.453 81.816 65.453 45.453 0 83.637-38.184 83.637-83.637-0.003906-45.449-38.184-83.633-83.637-83.633zm0 130.91c-25.453 0-47.273-21.816-47.273-47.273 0-25.453 21.816-47.273 47.273-47.273 25.453 0 47.273 21.816 47.273 47.273-0.003906 25.453-21.82 47.273-47.273 47.273z"/>
 <path d="m840 454.55 98.184-110.91h78.184c9.0898 38.184 41.816 65.453 81.816 65.453 45.453 0 83.637-38.184 83.637-83.637s-38.184-83.637-83.637-83.637c-40 0-72.727 27.273-81.816 65.453h-85.453c-5.4531 0-9.0898 1.8164-12.727 5.4531l-100 110.91h-201.82v36.363h210.91c5.4531 0 9.0898-1.8164 12.727-5.4531zm258.18-176.36c25.453 0 47.273 21.816 47.273 47.273 0 25.453-21.816 47.273-47.273 47.273-25.453 0-47.273-21.816-47.273-47.273 0-27.273 21.816-47.273 47.273-47.273z"/>
 <path d="m776.36 301.82 81.816-81.816c14.547 9.0898 30.91 16.363 49.09 16.363 45.453 0 83.637-38.184 83.637-83.637 0-45.453-38.184-83.637-83.637-83.637s-83.637 38.184-83.637 83.637c0 14.547 3.6367 29.09 10.91 40l-78.184 78.184h-140v36.363h147.28c5.4531 0 9.0898-1.8203 12.727-5.457zm130.91-196.36c25.453 0 47.273 21.816 47.273 47.273 0 25.457-21.82 47.273-47.273 47.273-25.453 0-47.273-21.816-47.273-47.273 0-25.453 21.816-47.273 47.273-47.273z"/>
 <path d="m1098.2 770.91c-40 0-72.727 27.273-81.816 65.453h-78.184l-98.184-110.91c-3.6367-3.6367-9.0898-5.4531-12.727-5.4531h-210.91v36.363h201.82l98.184 110.91c3.6367 3.6367 9.0898 5.4531 12.727 5.4531h85.453c9.0898 38.184 41.816 65.453 81.816 65.453 45.453 0 83.637-38.184 83.637-83.637 1.8164-47.27-36.363-83.633-81.816-83.633zm0 130.91c-25.453 0-47.273-21.816-47.273-47.273 0-25.453 21.816-47.273 47.273-47.273 25.453 0 47.273 21.816 47.273 47.273-0.003906 25.457-21.82 47.273-47.273 47.273z"/>
 <path d="m907.27 943.64c-18.184 0-34.547 5.4531-49.09 16.363l-81.816-83.637c-3.6367-3.6367-7.2734-5.4531-12.727-5.4531h-147.27v36.363h140l78.184 78.184c-7.2734 12.727-10.91 25.453-10.91 40 0 45.453 38.184 83.637 83.637 83.637s83.637-38.184 83.637-83.637c-0.003906-45.457-38.188-81.82-83.641-81.82zm0 130.91c-25.453 0-47.273-21.816-47.273-47.273 0-25.453 21.816-47.273 47.273-47.273 25.453 0 47.273 21.816 47.273 47.273 0 25.453-21.82 47.273-47.273 47.273z"/>
</svg>
